<svg xmlns="http://www.w3.org/2000/svg" version="1.1" xmlnsXlink="http://www.w3.org/1999/xlink" xmlnsSvgjs="http://svgjs.dev/svgjs" width="1000" height="313" viewBox="0 0 1000 313"><g transform="matrix(1,0,0,1,-0.6060606060606233,0.5753947858568154)"><svg viewBox="0 0 396 124" data-background-color="#ffffff" preserveAspectRatio="xMidYMid meet" height="313" width="1000" xmlns="http://www.w3.org/2000/svg" xmlns:xlink="http://www.w3.org/1999/xlink"><g id="tight-bounds" transform="matrix(1,0,0,1,0.2400000000000091,-0.22795192794328045)"><svg viewBox="0 0 395.52 124.45586523798072" height="124.45586523798072" width="395.52"><g><svg viewBox="0 0 611.5698084370142 192.4389402873552" height="124.45586523798072" width="395.52"><g transform="matrix(1,0,0,1,216.04980843701418,56.81924926977461)"><svg viewBox="0 0 395.52 78.80044174780598" height="78.80044174780598" width="395.52"><g id="textblocktransform"><svg viewBox="0 0 395.52 78.80044174780598" height="78.80044174780598" width="395.52" id="textblock"><g><svg viewBox="0 0 395.52 50.006921816828" height="50.006921816828" width="395.52"><g transform="matrix(1,0,0,1,0,0)"><svg width="395.52" viewBox="2.25 -38.75 337.57000732421875 42.45000076293945" height="50.006921816828" data-palette-color="#35185a"><path d="M18.9-15.05Q17.35-10.1 15.3-6.5 13.25-2.9 11.05-1 8.85 0.9 6.85 0.9L6.85 0.9Q2.25 0.9 2.25-8.55L2.25-8.55Q2.25-14.35 3.65-20.08 5.05-25.8 6.75-29.9L6.75-29.9Q7.25-31.2 8.05-31.98 8.85-32.75 10.3-32.75L10.3-32.75Q11.65-32.75 12.45-32.08 13.25-31.4 13.25-30.05L13.25-30.05 13.2-29.45Q13.2-29.35 12.6-27.8L12.6-27.8Q11.1-23.75 9.93-20.05 8.75-16.35 8.45-13L8.45-13Q8.3-11.3 8.3-9.65L8.3-9.65Q8.3-8 8.65-6.98 9-5.95 9.65-5.95L9.65-5.95Q11.1-5.95 13.18-10.13 15.25-14.3 17.15-20.13 19.05-25.95 19.95-30.35L19.95-30.35Q20.15-31.3 21.1-31.95 22.05-32.6 22.75-32.6L22.75-32.6Q24-32.6 24.58-31.98 25.15-31.35 25.15-30.05L25.15-30.05 25.1-29.35Q25.1-29.15 25-28.8 24.9-28.45 24.8-27.9L24.8-27.9Q22.4-16.5 21.9-10.9L21.9-10.9Q21.85-10.5 21.85-9.7L21.85-9.7Q21.85-8 22.33-6.98 22.8-5.95 23.55-5.95L23.55-5.95Q26-5.95 28.5-13.58 31-21.2 32.95-30.5L32.95-30.5Q33.15-31.4 33.83-31.83 34.5-32.25 35.45-32.25L35.45-32.25Q36.65-32.25 37.9-31.75 39.15-31.25 39.15-30.65L39.15-30.65 38.35-27.15Q36.5-18.95 34.63-13.15 32.75-7.35 29.73-3.23 26.7 0.9 22.4 0.9L22.4 0.9Q18.2 0.9 18.2-6.8L18.2-6.8Q18.2-10.35 19.1-15.05L19.1-15.05 18.9-15.05ZM58.65-2.6Q58.75-1.3 59-0.25L59-0.25Q58.9 0.05 58.12 0.35 57.35 0.65 56.8 0.65L56.8 0.65Q55 0.65 54.22 0.13 53.45-0.4 53.45-1.45L53.45-1.45Q53.45-2.45 53.65-3.45L53.65-3.45Q52.55-1.95 50.42-0.98 48.3 0 47 0L47 0Q43.65 0 41.42-1.95 39.2-3.9 39.2-8.2L39.2-8.2Q39.2-12.25 41.12-15.83 43.05-19.4 46.45-21.58 49.85-23.75 54-23.75L54-23.75Q54.8-23.75 56.1-23.33 57.4-22.9 58.72-21.88 60.05-20.85 60.95-19.25L60.95-19.25Q61.35-19.25 61.9-18.85 62.45-18.45 62.45-18.05L62.45-18.05Q62.45-17.6 62.3-17.15L62.3-17.15 58.65-2.6ZM56.4-16.6Q56.1-17.7 55.22-18.45 54.35-19.2 53.65-19.2L53.65-19.2Q51.35-19.2 49.32-17.57 47.3-15.95 46.05-13.55 44.8-11.15 44.8-9L44.8-9Q44.8-6.9 45.3-5.55 45.8-4.2 47.25-4.2L47.25-4.2Q48.5-4.2 50.12-4.95 51.75-5.7 53.02-6.98 54.3-8.25 54.7-9.65L54.7-9.65 56.4-16.6ZM75.15-18.1L72-5.5Q72-4.35 72.6-3.68 73.2-3 74.3-3L74.3-3Q75.8-3 76.77-3.88 77.75-4.75 78.85-6.35L78.85-6.35Q79.65-7.5 80.15-8 80.65-8.5 81.3-8.5L81.3-8.5Q82.6-8.5 83.15-8.18 83.7-7.85 83.7-6.85L83.7-6.85Q83.7-6.4 83.6-5.78 83.5-5.15 83.35-4.85L83.35-4.85Q82.15-2.3 79.42-0.45 76.7 1.4 73.25 1.4L73.25 1.4Q69.8 1.4 68.05-0.28 66.3-1.95 66.3-5.05L66.3-5.05Q66.3-5.5 66.75-7.4 67.2-9.3 67.9-11.95L67.9-11.95 69.3-17.65 66.25-17.4Q65.65-17.4 65.35-17.85 65.05-18.3 65.05-18.95L65.05-18.95Q65.05-20.2 65.95-21.45L65.95-21.45Q66.05-21.6 66.95-21.75 67.85-21.9 69.15-22.05L69.15-22.05 70.5-22.2 72.2-29.5Q72.7-30.8 73.72-31.53 74.75-32.25 75.65-32.25L75.65-32.25Q76.65-32.25 77.35-31.65 78.05-31.05 78.1-30.25L78.1-30.25 76.3-22.75Q78.25-23 79.92-23.18 81.6-23.35 82.55-23.35L82.55-23.35Q84.45-23.35 84.45-21.15L84.45-21.15Q84.45-20.3 83.72-19.63 83-18.95 82.15-18.8L82.15-18.8 75.15-18.1ZM108.29-5.9Q107.69-4.3 105.94-2.68 104.19-1.05 101.49 0 98.79 1.05 95.59 1.05L95.59 1.05Q90.69 1.05 88.34-0.98 85.99-3 85.99-6.25L85.99-6.25Q85.99-10.95 88.39-14.98 90.79-19 94.84-21.35 98.89-23.7 103.49-23.7L103.49-23.7Q106.34-23.7 108.22-22.03 110.09-20.35 110.09-17.5L110.09-17.5Q110.09-16.4 109.19-15.68 108.29-14.95 106.79-14.95L106.79-14.95Q105.59-14.95 105.17-15.5 104.74-16.05 104.74-16.95L104.74-16.95 104.79-18.1Q104.79-18.7 104.14-19.07 103.49-19.45 102.74-19.45L102.74-19.45Q101.19-19.45 98.57-17.6 95.94-15.75 93.97-12.73 91.99-9.7 91.99-6.25L91.99-6.25Q91.99-4.85 93.09-4.1 94.19-3.35 96.34-3.35L96.34-3.35Q97.69-3.35 99.44-3.9 101.19-4.45 101.64-5.3L101.64-5.3Q103.34-8.4 104.74-8.4L104.74-8.4Q106.79-8.4 107.52-7.63 108.24-6.85 108.29-5.9L108.29-5.9ZM119.09-16.5Q120.24-18.75 122.27-20.35 124.29-21.95 126.39-22.8 128.49-23.65 129.84-23.65L129.84-23.65Q132.44-23.65 133.59-22.68 134.74-21.7 134.74-19.6L134.74-19.6Q131.79-11.9 130.84-3L130.84-3 131.54-0.55Q130.94 0.6 129.94 1.28 128.94 1.95 126.89 1.95L126.89 1.95Q125.69 1.95 125.14 1.15 124.59 0.35 124.59-0.85L124.59-0.85Q124.59-4.2 125.57-8.22 126.54-12.25 127.84-16.45L127.84-16.45Q128.34-18.05 128.34-18.1L128.34-18.1Q128.34-18.8 127.54-18.8L127.54-18.8Q126.49-18.8 124.49-17.25 122.49-15.7 120.34-12.03 118.19-8.35 116.74-2.4L116.74-2.4Q116.69-2.15 116.49-1.35 116.29-0.55 115.59-0.2 114.89 0.15 113.44 0.15L113.44 0.15Q111.69 0.15 110.74-0.23 109.79-0.6 109.79-1.7L109.79-1.7Q116.34-27.45 117.89-33.9L117.89-33.9Q117.84-34.55 117.82-35.63 117.79-36.7 117.79-37.3L117.79-37.3Q117.94-38 118.87-38.38 119.79-38.75 120.74-38.75L120.74-38.75Q122.34-38.75 123.44-37.9 124.54-37.05 124.64-35.75L124.64-35.75 119.09-16.5ZM178.09-8.7Q177.34-6.45 175.11-4.17 172.89-1.9 169.51-0.43 166.14 1.05 162.14 1.05L162.14 1.05Q156.04 1.05 153.19-1.93 150.34-4.9 150.34-9.55L150.34-9.55Q150.34-16.15 153.29-21.53 156.24-26.9 161.24-29.98 166.24-33.05 172.04-33.05L172.04-33.05Q174.34-33.05 176.24-32 178.14-30.95 179.24-28.98 180.34-27 180.34-24.35L180.34-24.35Q180.34-22.85 179.21-21.8 178.09-20.75 176.19-20.75L176.19-20.75Q174.69-20.75 174.16-21.55 173.64-22.35 173.64-23.6L173.64-23.6 173.69-25.2Q173.69-26.1 172.69-26.95 171.69-27.8 170.84-27.8L170.84-27.8Q168.04-27.8 164.69-25.28 161.34-22.75 159.04-18.48 156.74-14.2 156.74-9.2L156.74-9.2Q156.74-6.9 158.54-5.45 160.34-4 163.09-4L163.09-4Q163.99-4 165.44-4.6 166.89-5.2 168.11-6.1 169.34-7 169.74-7.85L169.74-7.85Q170.34-9.1 171.44-10.65 172.54-12.2 173.64-12.2L173.64-12.2Q176.19-12.2 177.11-11.1 178.04-10 178.09-8.7L178.09-8.7ZM187.63-1.9Q187.58-1.6 187.41-0.73 187.23 0.15 186.56 0.5 185.88 0.85 184.43 0.85L184.43 0.85Q182.78 0.85 182.03 0.5 181.28 0.15 181.28-1L181.28-1 183.68-10.55Q185.68-18.8 186.33-21.05L186.33-21.05 185.08-22.55Q184.93-22.7 184.93-22.9L184.93-22.9Q184.93-23.4 186.03-23.73 187.13-24.05 189.08-24.05L189.08-24.05Q190.83-24.05 191.43-23.08 192.03-22.1 192.18-20.55L192.18-20.55 191.83-19.25Q193.43-21.2 195.56-22.48 197.68-23.75 199.33-23.75L199.33-23.75Q201.48-23.75 202.68-23 203.88-22.25 203.88-21.05L203.88-21.05Q203.88-20 203.16-18.88 202.43-17.75 201.33-16.98 200.23-16.2 199.18-16.1L199.18-16.1Q198.18-16.1 197.83-16.35 197.48-16.6 197.48-17.1L197.48-17.1 197.78-18.75Q193.78-17.65 190.53-13.45L190.53-13.45 187.63-1.9ZM221.43-2.6Q221.53-1.3 221.78-0.25L221.78-0.25Q221.68 0.05 220.91 0.35 220.13 0.65 219.58 0.65L219.58 0.65Q217.78 0.65 217.01 0.13 216.23-0.4 216.23-1.45L216.23-1.45Q216.23-2.45 216.43-3.45L216.43-3.45Q215.33-1.95 213.21-0.98 211.08 0 209.78 0L209.78 0Q206.43 0 204.21-1.95 201.98-3.9 201.98-8.2L201.98-8.2Q201.98-12.25 203.91-15.83 205.83-19.4 209.23-21.58 212.63-23.75 216.78-23.75L216.78-23.75Q217.58-23.75 218.88-23.33 220.18-22.9 221.51-21.88 222.83-20.85 223.73-19.25L223.73-19.25Q224.13-19.25 224.68-18.85 225.23-18.45 225.23-18.05L225.23-18.05Q225.23-17.6 225.08-17.15L225.08-17.15 221.43-2.6ZM219.18-16.6Q218.88-17.7 218.01-18.45 217.13-19.2 216.43-19.2L216.43-19.2Q214.13-19.2 212.11-17.57 210.08-15.95 208.83-13.55 207.58-11.15 207.58-9L207.58-9Q207.58-6.9 208.08-5.55 208.58-4.2 210.03-4.2L210.03-4.2Q211.28-4.2 212.91-4.95 214.53-5.7 215.81-6.98 217.08-8.25 217.48-9.65L217.48-9.65 219.18-16.6ZM239.93-16.9L235.38 1.7Q234.98 2.5 234.1 3.1 233.23 3.7 232.23 3.7L232.23 3.7Q231.33 3.7 230.4 3.03 229.48 2.35 229.48 1.25L229.48 1.25 229.48 0.95 233.73-16.4 229.08-16Q227.53-16 227.53-17.55L227.53-17.55Q227.53-18.8 228.43-20.05L228.43-20.05Q228.58-20.25 234.98-20.95L234.98-20.95 235.88-25.1Q237.08-30.3 239.7-32.98 242.33-35.65 247.13-35.65L247.13-35.65Q249.43-35.65 251.13-34.65 252.83-33.65 253.68-32.1 254.53-30.55 254.53-28.95L254.53-28.95Q254.53-27.7 253.95-26.95 253.38-26.2 251.58-26.2L251.58-26.2Q250.93-26.2 250.65-26.6 250.38-27 250.08-27.95L250.08-27.95Q249.73-29.2 249.13-29.9 248.53-30.6 247.03-30.6L247.03-30.6Q245.33-30.6 244.15-29.68 242.98-28.75 242.63-27.45L242.63-27.45 241.08-21.55 244.13-21.85Q246.13-22.05 246.28-22.05L246.28-22.05Q248.18-22.05 248.18-19.85L248.18-19.85Q248.18-19 247.45-18.32 246.73-17.65 245.88-17.5L245.88-17.5 239.93-16.9ZM260.08-18.1L256.93-5.5Q256.93-4.35 257.53-3.68 258.13-3 259.23-3L259.23-3Q260.73-3 261.7-3.88 262.68-4.75 263.78-6.35L263.78-6.35Q264.58-7.5 265.08-8 265.58-8.5 266.23-8.5L266.23-8.5Q267.53-8.5 268.08-8.18 268.63-7.85 268.63-6.85L268.63-6.85Q268.63-6.4 268.53-5.78 268.43-5.15 268.28-4.85L268.28-4.85Q267.08-2.3 264.35-0.45 261.63 1.4 258.18 1.4L258.18 1.4Q254.73 1.4 252.98-0.28 251.23-1.95 251.23-5.05L251.23-5.05Q251.23-5.5 251.68-7.4 252.13-9.3 252.83-11.95L252.83-11.95 254.23-17.65 251.18-17.4Q250.58-17.4 250.28-17.85 249.98-18.3 249.98-18.95L249.98-18.95Q249.98-20.2 250.88-21.45L250.88-21.45Q250.98-21.6 251.88-21.75 252.78-21.9 254.08-22.05L254.08-22.05 255.43-22.2 257.13-29.5Q257.63-30.8 258.65-31.53 259.68-32.25 260.58-32.25L260.58-32.25Q261.58-32.25 262.28-31.65 262.98-31.05 263.03-30.25L263.03-30.25 261.23-22.75Q263.18-23 264.85-23.18 266.53-23.35 267.48-23.35L267.48-23.35Q269.38-23.35 269.38-21.15L269.38-21.15Q269.38-20.3 268.65-19.63 267.93-18.95 267.08-18.8L267.08-18.8 260.08-18.1ZM280.52 1.05Q275.62 1.05 273.37-0.9 271.12-2.85 271.12-6.1L271.12-6.1Q271.12-10.85 273.5-14.9 275.87-18.95 279.85-21.33 283.82-23.7 288.42-23.7L288.42-23.7Q291.22-23.7 293.12-22.13 295.02-20.55 295.02-17.5L295.02-17.5Q295.02-15.75 293.9-14.63 292.77-13.5 290.67-12.63 288.57-11.75 283.87-10.15L283.87-10.15Q279.62-8.75 276.97-7.8L276.97-7.8Q276.77-7.05 276.77-6.25L276.77-6.25Q276.77-4.85 277.95-4.1 279.12-3.35 281.27-3.35L281.27-3.35Q282.62-3.35 284.37-3.9 286.12-4.45 286.57-5.3L286.57-5.3Q288.27-8.4 289.67-8.4L289.67-8.4Q291.72-8.4 292.45-7.63 293.17-6.85 293.22-5.9L293.22-5.9Q292.62-4.3 290.87-2.68 289.12-1.05 286.42 0 283.72 1.05 280.52 1.05L280.52 1.05ZM278.37-12.4Q283.32-14 286.52-15.38 289.72-16.75 289.72-18.1L289.72-18.1Q289.72-18.7 289.07-19.07 288.42-19.45 287.67-19.45L287.67-19.45Q286.17-19.45 284.25-18.3 282.32-17.15 280.67-15.5 279.02-13.85 278.37-12.4L278.37-12.4ZM302.92-1.9Q302.87-1.6 302.7-0.73 302.52 0.15 301.85 0.5 301.17 0.85 299.72 0.85L299.72 0.85Q298.07 0.85 297.32 0.5 296.57 0.15 296.57-1L296.57-1 298.97-10.55Q300.97-18.8 301.62-21.05L301.62-21.05 300.37-22.55Q300.22-22.7 300.22-22.9L300.22-22.9Q300.22-23.4 301.32-23.73 302.42-24.05 304.37-24.05L304.37-24.05Q306.12-24.05 306.72-23.08 307.32-22.1 307.47-20.55L307.47-20.55 307.12-19.25Q308.72-21.2 310.85-22.48 312.97-23.75 314.62-23.75L314.62-23.75Q316.77-23.75 317.97-23 319.17-22.25 319.17-21.05L319.17-21.05Q319.17-20 318.45-18.88 317.72-17.75 316.62-16.98 315.52-16.2 314.47-16.1L314.47-16.1Q313.47-16.1 313.12-16.35 312.77-16.6 312.77-17.1L312.77-17.1 313.07-18.75Q309.07-17.65 305.82-13.45L305.82-13.45 302.92-1.9ZM334.12-19.35Q333.52-19.65 332.62-19.65L332.62-19.65Q330.37-19.65 328.12-18.75 325.87-17.85 325.87-16.45L325.87-16.45Q325.87-15.45 326.77-14.85 327.67-14.25 329.62-13.5L329.62-13.5Q331.72-12.65 333.02-11.9 334.32-11.15 335.29-9.73 336.27-8.3 336.27-6.1L336.27-6.1Q336.27-2.5 333.29-0.58 330.32 1.35 325.32 1.35L325.32 1.35Q322.87 1.35 320.77 0.6 318.67-0.15 317.44-1.33 316.22-2.5 316.12-3.65L316.12-3.65Q316.12-4.85 317.17-5.63 318.22-6.4 320.12-6.65L320.12-6.65Q320.17-5.65 321.17-4.78 322.17-3.9 323.54-3.38 324.92-2.85 325.92-2.85L325.92-2.85Q327.62-2.85 329.02-3.78 330.42-4.7 330.42-5.95L330.42-5.95Q330.42-8.25 325.97-9.6L325.97-9.6Q323.12-10.45 321.59-12.3 320.07-14.15 320.07-16.2L320.07-16.2Q320.07-20.25 323.74-22.03 327.42-23.8 333.12-23.8L333.12-23.8Q336.32-23.8 338.07-23.05 339.82-22.3 339.82-20.45L339.82-20.45Q339.82-19.2 338.89-18.25 337.97-17.3 336.27-17.3L336.27-17.3Q334.77-17.3 334.34-17.53 333.92-17.75 333.87-18.3L333.87-18.3Q333.87-18.8 334.12-19.35L334.12-19.35Z" opacity="1" transform="matrix(1,0,0,1,0,0)" fill="#35185a" class="undefined-text-0" data-fill-palette-color="primary" id="text-0"></path></svg></g></svg></g><g transform="matrix(1,0,0,1,0,61.81235589165748)"><svg viewBox="0 0 232.209792 16.98808585614849" height="16.98808585614849" width="232.209792"><g transform="matrix(1,0,0,1,0,0)"><svg width="232.209792" viewBox="1.9500000476837158 -38.599998474121094 676.739990234375 49.269996643066406" height="16.98808585614849" data-palette-color="#35185a"><path d="M18.04 0.51L18.04 0.51Q12.7 0.51 9.12-1.83 5.54-4.17 3.75-8.25 1.95-12.33 1.95-17.5L1.95-17.5 1.95-18.02Q1.95-23.24 3.83-27.31 5.71-31.37 9.23-33.72 12.74-36.06 17.63-36.06L17.63-36.06Q21.07-36.06 23.93-34.99 26.78-33.91 28.66-32.25L28.66-32.25 28.66-24.58 24.83-24.58 24.32-30.2Q23.54-30.81 22.52-31.23 21.51-31.64 20.28-31.86 19.04-32.08 17.6-32.08L17.6-32.08Q14.11-32.08 11.69-30.29 9.28-28.49 8.03-25.34 6.79-22.19 6.79-18.07L6.79-18.07 6.79-17.5Q6.79-13.04 8.12-9.88 9.45-6.71 12-5.05 14.55-3.39 18.21-3.39L18.21-3.39Q19.92-3.39 21.56-3.81 23.19-4.22 24.27-4.88L24.27-4.88 24.8-9.84 28.56-9.84 28.56-2.12Q26.56-0.88 23.78-0.18 21 0.51 18.04 0.51ZM46.02 0L33.25 0 33.25-3.08 37.23-3.76 37.23-22.63 33.25-23.32 33.25-26.42 41.53-26.42 41.94-23.05 41.99-22.58Q43.11-24.61 44.76-25.76 46.41-26.9 48.53-26.9L48.53-26.9Q49.29-26.9 50.08-26.77 50.88-26.64 51.22-26.51L51.22-26.51 50.58-22.05 47.24-22.24Q45.33-22.36 44.04-21.37 42.75-20.39 42.04-18.73L42.04-18.73 42.04-3.76 46.02-3.08 46.02 0ZM62.69 0.51L62.69 0.51Q58.56 0.51 56.42-1.5 54.27-3.52 54.27-7.18L54.27-7.18Q54.27-9.69 55.65-11.56 57.03-13.43 59.64-14.47 62.25-15.5 65.89-15.5L65.89-15.5 70.6-15.5 70.6-18.09Q70.6-20.48 69.15-21.8 67.7-23.12 65.06-23.12L65.06-23.12Q63.4-23.12 62.18-22.72 60.96-22.31 59.96-21.61L59.96-21.61 59.44-17.92 55.73-17.92 55.73-23.97Q57.51-25.42 59.88-26.16 62.25-26.9 65.13-26.9L65.13-26.9Q69.94-26.9 72.68-24.61 75.41-22.31 75.41-18.04L75.41-18.04 75.41-5.32Q75.41-4.81 75.42-4.32 75.43-3.83 75.48-3.34L75.48-3.34 78.05-3.08 78.05 0 71.14 0Q70.92-1.07 70.8-1.93 70.67-2.78 70.62-3.64L70.62-3.64Q69.23-1.86 67.15-0.67 65.06 0.51 62.69 0.51ZM63.4-3.52L63.4-3.52Q65.79-3.52 67.77-4.66 69.75-5.81 70.6-7.42L70.6-7.42 70.6-12.21 65.72-12.21Q62.4-12.21 60.74-10.62 59.08-9.03 59.08-7.08L59.08-7.08Q59.08-5.35 60.15-4.43 61.23-3.52 63.4-3.52ZM95.01 0L81.68 0 81.68-3.08 85.66-3.76 85.66-22.85 81.54-22.85 81.54-26.42 85.66-26.42 85.66-29.76Q85.66-33.98 87.87-36.29 90.08-38.6 94.04-38.6L94.04-38.6Q94.87-38.6 95.83-38.46 96.79-38.33 97.82-38.09L97.82-38.09 97.23-34.42Q96.79-34.52 96.05-34.59 95.31-34.67 94.65-34.67L94.65-34.67Q92.52-34.67 91.5-33.41 90.47-32.15 90.47-29.76L90.47-29.76 90.47-26.42 96.23-26.42 96.23-22.85 90.47-22.85 90.47-3.76 95.01-3.08 95.01 0ZM108.8 0.42L108.8 0.42Q105.87 0.42 104.15-1.31 102.43-3.03 102.43-6.81L102.43-6.81 102.43-22.85 98.26-22.85 98.26-26.42 102.43-26.42 102.43-32.79 107.24-32.79 107.24-26.42 112.98-26.42 112.98-22.85 107.24-22.85 107.24-6.81Q107.24-4.91 108-4 108.75-3.1 110.02-3.1L110.02-3.1Q110.88-3.1 111.93-3.26 112.98-3.42 113.56-3.54L113.56-3.54 114.22-0.39Q113.17-0.07 111.65 0.17 110.12 0.42 108.8 0.42ZM129.89 0L117.13 0 117.13-3.08 121.11-3.76 121.11-22.63 117.13-23.32 117.13-26.42 125.92-26.42 125.92-3.76 129.89-3.08 129.89 0ZM125.92-32.93L120.86-32.93 120.86-38.09 125.92-38.09 125.92-32.93ZM145.98 0L133.21 0 133.21-3.08 137.19-3.76 137.19-22.63 133.21-23.32 133.21-26.42 141.49-26.42 141.83-22.49Q143.15-24.58 145.14-25.74 147.13-26.9 149.67-26.9L149.67-26.9Q153.94-26.9 156.28-24.4 158.63-21.9 158.63-16.67L158.63-16.67 158.63-3.76 162.61-3.08 162.61 0 149.84 0 149.84-3.08 153.82-3.76 153.82-16.58Q153.82-20.07 152.44-21.53 151.06-23 148.23-23L148.23-23Q146.15-23 144.55-22 142.95-21 142-19.26L142-19.26 142-3.76 145.98-3.08 145.98 0ZM177.35 10.67L177.35 10.67Q175.45 10.67 173.22 10.14 171 9.62 169.32 8.72L169.32 8.72 170.56 4.98Q171.91 5.69 173.74 6.15 175.57 6.62 177.3 6.62L177.3 6.62Q180.52 6.62 182.03 4.81 183.53 3 183.53-0.34L183.53-0.34 183.53-2.86Q182.23-1.2 180.43-0.34 178.62 0.51 176.28 0.51L176.28 0.51Q173.05 0.51 170.71-1.09 168.37-2.69 167.11-5.55 165.85-8.42 165.85-12.21L165.85-12.21 165.85-12.72Q165.85-16.97 167.11-20.17 168.37-23.36 170.71-25.13 173.05-26.9 176.33-26.9L176.33-26.9Q178.82-26.9 180.7-25.93 182.58-24.95 183.84-23.1L183.84-23.1 184.28-26.42 188.34-26.42 188.34-0.34Q188.34 3.08 187.06 5.54 185.77 8.01 183.32 9.34 180.87 10.67 177.35 10.67ZM177.47-3.39L177.47-3.39Q179.65-3.39 181.11-4.38 182.58-5.37 183.53-7.18L183.53-7.18 183.53-19.34Q182.6-21.02 181.11-22.01 179.62-23 177.52-23L177.52-23Q175.23-23 173.7-21.68 172.17-20.36 171.42-18.05 170.66-15.75 170.66-12.72L170.66-12.72 170.66-12.21Q170.66-8.23 172.35-5.81 174.03-3.39 177.47-3.39ZM191.61-23.34L187.6-22.49 185.72-26.42 191.61-26.42 191.61-23.34ZM228.13 0L215.36 0 215.36-3.08 219.34-3.76 219.34-31.91 211.28-31.91 210.57-26.98 206.96-26.98 206.96-35.55 236.5-35.55 236.5-26.98 232.94-26.98 232.2-31.91 224.15-31.91 224.15-3.76 228.13-3.08 228.13 0ZM251.42 0L238.65 0 238.65-3.08 242.63-3.76 242.63-22.63 238.65-23.32 238.65-26.42 247.44-26.42 247.44-3.76 251.42-3.08 251.42 0ZM247.44-32.93L242.38-32.93 242.38-38.09 247.44-38.09 247.44-32.93ZM267.5 0L254.73 0 254.73-3.08 258.71-3.76 258.71-22.63 254.73-23.32 254.73-26.42 263.03-26.42 263.35-22.97Q264.62-24.85 266.62-25.88 268.62-26.9 271.26-26.9L271.26-26.9Q273.9-26.9 275.79-25.68 277.68-24.46 278.63-22.02L278.63-22.02Q279.88-24.27 281.93-25.59 283.98-26.9 286.72-26.9L286.72-26.9Q290.77-26.9 293.11-24.13 295.46-21.36 295.46-15.8L295.46-15.8 295.46-3.76 299.44-3.08 299.44 0 286.64 0 286.64-3.08 290.62-3.76 290.62-15.84Q290.62-19.75 289.28-21.37 287.94-23 285.3-23L285.3-23Q282.79-23 281.26-21.23 279.73-19.46 279.49-16.77L279.49-16.77 279.49-3.76 283.47-3.08 283.47 0 270.7 0 270.7-3.08 274.68-3.76 274.68-15.84Q274.68-19.56 273.3-21.28 271.92-23 269.31-23L269.31-23Q267.11-23 265.7-22.09 264.28-21.19 263.52-19.56L263.52-19.56 263.52-3.76 267.5-3.08 267.5 0ZM314.67 0.51L314.67 0.51Q311.01 0.51 308.3-1.16 305.59-2.83 304.11-5.81 302.63-8.79 302.63-12.7L302.63-12.7 302.63-13.77Q302.63-17.53 304.18-20.5 305.73-23.46 308.31-25.18 310.88-26.9 313.93-26.9L313.93-26.9Q317.5-26.9 319.9-25.44 322.31-23.97 323.53-21.33 324.75-18.68 324.75-15.09L324.75-15.09 324.75-12.08 307.61-12.08 307.54-11.96Q307.59-9.42 308.43-7.46 309.27-5.49 310.86-4.37 312.45-3.25 314.67-3.25L314.67-3.25Q317.11-3.25 318.95-3.94 320.8-4.64 322.14-5.86L322.14-5.86 324.02-2.73Q322.6-1.37 320.27-0.43 317.94 0.51 314.67 0.51ZM307.71-15.97L307.76-15.84 319.94-15.84 319.94-16.48Q319.94-18.38 319.27-19.89 318.6-21.39 317.27-22.25 315.94-23.12 313.93-23.12L313.93-23.12Q312.32-23.12 311.01-22.18 309.69-21.24 308.83-19.63 307.98-18.02 307.71-15.97L307.71-15.97ZM329.95 7.59L329.95 7.59 327.24 5.79Q328.39 4.03 328.97 2.2 329.56 0.37 329.56-1.68L329.56-1.68 329.56-5.4 334.37-5.4 334.37-1.76Q334.37 0.63 333.17 3.25 331.97 5.86 329.95 7.59ZM365.1 0L350.94 0 350.94-3.08 354.92-3.76 354.92-31.76 350.94-32.45 350.94-35.55 354.92-35.55 364.86-35.55Q369.57-35.55 373.07-33.3 376.57-31.05 378.53-27.12 380.48-23.19 380.48-18.14L380.48-18.14 380.48-17.38Q380.48-12.45 378.6-8.51 376.72-4.57 373.27-2.28 369.81 0 365.1 0L365.1 0ZM359.73-31.76L359.73-3.76 364.86-3.76Q368.22-3.76 370.64-5.6 373.06-7.45 374.36-10.53 375.67-13.62 375.67-17.38L375.67-17.38 375.67-18.19Q375.67-22.07 374.36-25.13 373.06-28.2 370.64-29.98 368.22-31.76 364.86-31.76L364.86-31.76 359.73-31.76ZM395.91 0.51L395.91 0.51Q392.25 0.51 389.54-1.16 386.83-2.83 385.35-5.81 383.87-8.79 383.87-12.7L383.87-12.7 383.87-13.77Q383.87-17.53 385.42-20.5 386.97-23.46 389.55-25.18 392.12-26.9 395.17-26.9L395.17-26.9Q398.74-26.9 401.14-25.44 403.55-23.97 404.77-21.33 405.99-18.68 405.99-15.09L405.99-15.09 405.99-12.08 388.85-12.08 388.78-11.96Q388.83-9.42 389.67-7.46 390.51-5.49 392.1-4.37 393.69-3.25 395.91-3.25L395.91-3.25Q398.35-3.25 400.19-3.94 402.04-4.64 403.38-5.86L403.38-5.86 405.26-2.73Q403.84-1.37 401.51-0.43 399.18 0.51 395.91 0.51ZM388.95-15.97L389-15.84 401.18-15.84 401.18-16.48Q401.18-18.38 400.51-19.89 399.84-21.39 398.51-22.25 397.18-23.12 395.17-23.12L395.17-23.12Q393.56-23.12 392.25-22.18 390.93-21.24 390.07-19.63 389.22-18.02 388.95-15.97L388.95-15.97ZM422.96 0L409.63 0 409.63-3.08 413.6-3.76 413.6-22.85 409.48-22.85 409.48-26.42 413.6-26.42 413.6-29.76Q413.6-33.98 415.81-36.29 418.02-38.6 421.98-38.6L421.98-38.6Q422.81-38.6 423.77-38.46 424.74-38.33 425.76-38.09L425.76-38.09 425.18-34.42Q424.74-34.52 423.99-34.59 423.25-34.67 422.59-34.67L422.59-34.67Q420.47-34.67 419.44-33.41 418.41-32.15 418.41-29.76L418.41-29.76 418.41-26.42 424.18-26.42 424.18-22.85 418.41-22.85 418.41-3.76 422.96-3.08 422.96 0ZM440.02 0L427.25 0 427.25-3.08 431.23-3.76 431.23-22.63 427.25-23.32 427.25-26.42 436.04-26.42 436.04-3.76 440.02-3.08 440.02 0ZM436.04-32.93L430.99-32.93 430.99-38.09 436.04-38.09 436.04-32.93ZM456.1 0L443.34 0 443.34-3.08 447.32-3.76 447.32-22.63 443.34-23.32 443.34-26.42 451.61-26.42 451.95-22.49Q453.27-24.58 455.26-25.74 457.25-26.9 459.79-26.9L459.79-26.9Q464.06-26.9 466.41-24.4 468.75-21.9 468.75-16.67L468.75-16.67 468.75-3.76 472.73-3.08 472.73 0 459.96 0 459.96-3.08 463.94-3.76 463.94-16.58Q463.94-20.07 462.56-21.53 461.18-23 458.35-23L458.35-23Q456.28-23 454.68-22 453.08-21 452.13-19.26L452.13-19.26 452.13-3.76 456.1-3.08 456.1 0ZM488.72 0L475.95 0 475.95-3.08 479.93-3.76 479.93-22.63 475.95-23.32 475.95-26.42 484.74-26.42 484.74-3.76 488.72-3.08 488.72 0ZM484.74-32.93L479.69-32.93 479.69-38.09 484.74-38.09 484.74-32.93ZM504.81 0L492.04 0 492.04-3.08 496.02-3.76 496.02-22.63 492.04-23.32 492.04-26.42 500.31-26.42 500.66-22.49Q501.97-24.58 503.96-25.74 505.95-26.9 508.49-26.9L508.49-26.9Q512.76-26.9 515.11-24.4 517.45-21.9 517.45-16.67L517.45-16.67 517.45-3.76 521.43-3.08 521.43 0 508.66 0 508.66-3.08 512.64-3.76 512.64-16.58Q512.64-20.07 511.26-21.53 509.88-23 507.05-23L507.05-23Q504.98-23 503.38-22 501.78-21 500.83-19.26L500.83-19.26 500.83-3.76 504.81-3.08 504.81 0ZM536.18 10.67L536.18 10.67Q534.27 10.67 532.05 10.14 529.83 9.62 528.14 8.72L528.14 8.72 529.39 4.98Q530.73 5.69 532.56 6.15 534.39 6.62 536.13 6.62L536.13 6.62Q539.35 6.62 540.85 4.81 542.35 3 542.35-0.34L542.35-0.34 542.35-2.86Q541.06-1.2 539.25-0.34 537.44 0.51 535.1 0.51L535.1 0.51Q531.88 0.51 529.53-1.09 527.19-2.69 525.93-5.55 524.68-8.42 524.68-12.21L524.68-12.21 524.68-12.72Q524.68-16.97 525.93-20.17 527.19-23.36 529.53-25.13 531.88-26.9 535.15-26.9L535.15-26.9Q537.64-26.9 539.52-25.93 541.4-24.95 542.67-23.1L542.67-23.1 543.11-26.42 547.16-26.42 547.16-0.34Q547.16 3.08 545.88 5.54 544.6 8.01 542.14 9.34 539.69 10.67 536.18 10.67ZM536.3-3.39L536.3-3.39Q538.47-3.39 539.94-4.38 541.4-5.37 542.35-7.18L542.35-7.18 542.35-19.34Q541.42-21.02 539.94-22.01 538.45-23 536.35-23L536.35-23Q534.05-23 532.53-21.68 531-20.36 530.24-18.05 529.49-15.75 529.49-12.72L529.49-12.72 529.49-12.21Q529.49-8.23 531.17-5.81 532.86-3.39 536.3-3.39ZM550.43-23.34L546.43-22.49 544.55-26.42 550.43-26.42 550.43-23.34ZM578.24 0.51L578.24 0.51Q574.99 0.51 571.99-0.44 568.98-1.39 566.25-3.37L566.25-3.37 566.25-10.96 569.98-10.96 570.79-5.37Q572.38-4.39 574.23-3.86 576.09-3.32 578.24-3.32L578.24-3.32Q580.68-3.32 582.37-4.06 584.07-4.81 584.97-6.13 585.88-7.45 585.88-9.2L585.88-9.2Q585.88-10.84 585.1-12.08 584.31-13.33 582.52-14.27 580.73-15.21 577.63-15.92L577.63-15.92Q573.96-16.77 571.44-18.2 568.91-19.63 567.6-21.67 566.3-23.71 566.3-26.34L566.3-26.34Q566.3-29.13 567.77-31.32 569.25-33.52 571.89-34.79 574.52-36.06 578.04-36.06L578.04-36.06Q581.78-36.06 584.64-34.92 587.51-33.79 589.37-32.18L589.37-32.18 589.37-25.07 585.63-25.07 584.83-30.15Q583.73-31.03 582.09-31.62 580.46-32.2 578.04-32.2L578.04-32.2Q575.99-32.2 574.43-31.48 572.86-30.76 571.99-29.47 571.11-28.17 571.11-26.42L571.11-26.42Q571.11-24.88 571.9-23.73 572.69-22.58 574.49-21.72 576.28-20.85 579.29-20.09L579.29-20.09Q584.9-18.7 587.79-15.98 590.69-13.26 590.69-9.25L590.69-9.25Q590.69-6.4 589.15-4.19 587.61-1.98 584.82-0.73 582.02 0.51 578.24 0.51ZM604.01 0.42L604.01 0.42Q601.08 0.42 599.36-1.31 597.64-3.03 597.64-6.81L597.64-6.81 597.64-22.85 593.47-22.85 593.47-26.42 597.64-26.42 597.64-32.79 602.45-32.79 602.45-26.42 608.19-26.42 608.19-22.85 602.45-22.85 602.45-6.81Q602.45-4.91 603.21-4 603.97-3.1 605.24-3.1L605.24-3.1Q606.09-3.1 607.14-3.26 608.19-3.42 608.78-3.54L608.78-3.54 609.43-0.39Q608.38-0.07 606.86 0.17 605.33 0.42 604.01 0.42ZM618.25 10.67L618.25 10.67Q617.68 10.67 616.78 10.53 615.88 10.4 615.39 10.28L615.39 10.28 615.88 6.49Q616.29 6.54 617.02 6.58 617.76 6.62 618.03 6.62L618.03 6.62Q619.56 6.62 620.53 5.44 621.49 4.27 622.32 2.25L622.32 2.25 623.47-0.54 614.12-22.92 611.29-23.32 611.29-26.42 622.37-26.42 622.37-23.32 619.17-22.83 624.32-9.62 625.57-6.18 625.72-6.18 631.82-22.83 628.45-23.32 628.45-26.42 639.31-26.42 639.31-23.32 636.58-22.92 626.18 4.05Q625.45 5.96 624.41 7.46 623.37 8.96 621.87 9.81 620.37 10.67 618.25 10.67ZM653.64 0L640.87 0 640.87-3.08 644.85-3.76 644.85-34.3 640.87-34.99 640.87-38.09 649.66-38.09 649.66-3.76 653.64-3.08 653.64 0ZM668.61 0.51L668.61 0.51Q664.94 0.51 662.23-1.16 659.52-2.83 658.05-5.81 656.57-8.79 656.57-12.7L656.57-12.7 656.57-13.77Q656.57-17.53 658.12-20.5 659.67-23.46 662.25-25.18 664.82-26.9 667.87-26.9L667.87-26.9Q671.44-26.9 673.84-25.44 676.25-23.97 677.47-21.33 678.69-18.68 678.69-15.09L678.69-15.09 678.69-12.08 661.55-12.08 661.48-11.96Q661.53-9.42 662.37-7.46 663.21-5.49 664.8-4.37 666.39-3.25 668.61-3.25L668.61-3.25Q671.05-3.25 672.89-3.94 674.73-4.64 676.08-5.86L676.08-5.86 677.96-2.73Q676.54-1.37 674.21-0.43 671.88 0.51 668.61 0.51ZM661.65-15.97L661.7-15.84 673.88-15.84 673.88-16.48Q673.88-18.38 673.21-19.89 672.54-21.39 671.21-22.25 669.88-23.12 667.87-23.12L667.87-23.12Q666.26-23.12 664.94-22.18 663.63-21.24 662.77-19.63 661.92-18.02 661.65-15.97L661.65-15.97Z" opacity="1" transform="matrix(1,0,0,1,0,0)" fill="#35185a" class="undefined-text-1" data-fill-palette-color="secondary" id="text-1"></path></svg></g></svg></g></svg></g></svg></g><g><svg viewBox="0 0 192.4389402873552 192.4389402873552" height="192.4389402873552" width="192.4389402873552"><g><svg></svg></g><g id="icon-0"><svg viewBox="0 0 192.4389402873552 192.4389402873552" height="192.4389402873552" width="192.4389402873552"><g><path d="M0 96.219c0-53.141 43.079-96.219 96.219-96.219 53.141 0 96.219 43.079 96.22 96.219 0 53.141-43.079 96.219-96.22 96.22-53.141 0-96.219-43.079-96.219-96.22zM96.219 187.929c50.65 0 91.71-41.06 91.71-91.71 0-50.65-41.06-91.71-91.71-91.709-50.65 0-91.71 41.06-91.709 91.709 0 50.65 41.06 91.71 91.709 91.71z" data-fill-palette-color="accent" fill="#bb84e8" stroke="transparent"></path></g><g transform="matrix(1,0,0,1,47.03863926584656,40.01280628329927)"><svg viewBox="0 0 98.36166175566207 112.41332772075666" height="112.41332772075666" width="98.36166175566207"><g><svg xmlns="http://www.w3.org/2000/svg" xmlns:xlink="http://www.w3.org/1999/xlink" version="1.1" x="0" y="0" viewBox="32 0 448 512" enable-background="new 0 0 512 512" xml:space="preserve" height="112.41332772075666" width="98.36166175566207" class="icon-s-0" data-fill-palette-color="accent" id="s-0"><g fill="#bb84e8" data-fill-palette-color="accent"><path d="M464 224h-16c-8.813 0-16 7.156-16 16h-17.375c-3.313-39.094-17.625-75.031-40.813-103.938C368.625 101.063 362 66.219 352 32L320 0v89.906C291.75 73.531 259 64 224 64s-67.719 9.531-96 25.906V0L96 32c-9.938 34.219-16.563 69.031-21.75 104.031C47.875 168.906 32 210.563 32 256s15.875 87.094 42.25 119.969c5.188 35 11.813 69.813 21.75 104.031l32 32v-89.906C156.281 438.469 189 448 224 448s67.75-9.531 96-25.906V512l32-32c10-34.219 16.625-69.063 21.813-104.031C397 347.031 411.313 311.094 414.625 272H432c0 8.844 7.188 16 16 16h16c8.875 0 16-7.156 16-16v-32C480 231.156 472.875 224 464 224zM224 416c-88.188 0-160-71.781-160-160S135.813 96 224 96c88.25 0 160 71.781 160 160S312.25 416 224 416z" fill="#bb84e8" data-fill-palette-color="accent"></path><path d="M224 112c-79.5 0-144 64.469-144 144s64.5 144 144 144c79.563 0 144-64.469 144-144S303.563 112 224 112zM294.75 362.531L286.938 349l-13.875 8 7.625 13.188c-14.875 7.406-31.25 11.906-48.688 13V368h-16v15.188c-17.438-1.094-33.813-5.594-48.688-13L174.938 357l-13.875-8-7.813 13.531c-14.156-9.438-26.313-21.594-35.75-35.781l13.5-7.813-8-13.875-13.188 7.625c-7.375-14.875-11.875-31.25-13-48.688H112v-16H96.813c1.125-17.438 5.625-33.813 13.031-48.688l13.188 7.625L131 193.063l-13.5-7.813c9.438-14.156 21.625-26.344 35.781-35.781L161.094 163l13.844-8-7.625-13.188c14.875-7.406 31.25-11.906 48.688-13V144h16v-15.188c17.438 1.094 33.813 5.594 48.688 13L273.063 155l13.875 8 7.813-13.531c14.188 9.469 26.375 21.625 35.813 35.781L317 193.063l8 13.875 13.188-7.625c7.438 14.875 11.938 31.25 13 48.688H336v16h15.188c-1.063 17.438-5.563 33.813-13 48.688L325 305.063l-8 13.875 13.563 7.813C321.125 340.938 308.938 353.094 294.75 362.531z" fill="#bb84e8" data-fill-palette-color="accent"></path><path d="M320 248h-82.438c-2.125-3.563-5.438-6.125-9.563-7.188V160h-8v80.813c-4.063 1.063-7.438 3.625-9.531 7.188H192v16h18.469c2.094 3.563 5.469 6.125 9.531 7.188V288h8v-16.813c4.125-1.063 7.438-3.625 9.563-7.188H320V248z" fill="#bb84e8" data-fill-palette-color="accent"></path></g></svg></g></svg></g></svg></g></svg></g></svg></g><defs></defs></svg><rect width="395.52" height="124.45586523798072" fill="none" stroke="none" visibility="hidden"></rect></g></svg></g></svg>